<?xml version="1.0" encoding="utf-8"?>
<!-- Generator: Adobe Illustrator 25.4.1, SVG Export Plug-In . SVG Version: 6.00 Build 0)  -->
<svg version="1.1" id="Calque_1" xmlns="http://www.w3.org/2000/svg" xmlns:xlink="http://www.w3.org/1999/xlink" x="0px" y="0px"
	 viewBox="0 0 576 720" style="enable-background:new 0 0 576 720;" xml:space="preserve">
<style type="text/css">
	.st0{fill:#FFFFFF;}
</style>
<g>
	<path class="st0" d="M245.04,144.4v360.15c0,3.95-3.38,7.17-7.32,6.84c-95.92-8.24-171.4-88.87-171.4-186.96
		c0-97.99,75.47-178.62,171.4-186.86C241.66,137.23,245.04,140.45,245.04,144.4z"/>
	<path class="st0" d="M441.61,324.43c0,100.03-78.5,181.85-177.08,187.33c-2.76,0.15-5.11-2.12-5.11-4.88V142.08
		c0-2.77,2.35-5.04,5.11-4.88C363.11,142.67,441.61,224.49,441.61,324.43z"/>
	<path class="st0" d="M515.8,323.93c-0.56,97.15-72.69,176.03-166.39,186.88c-3.96,0.46-5.51-4.94-1.98-6.78
		c64.76-33.76,109.07-101.61,109.07-179.61c0-78.08-44.5-146.04-109.49-179.73c-3.52-1.83-2-7.2,1.95-6.79
		C442.87,147.79,515.24,227.74,515.8,323.93"/>
</g>
</svg>
